<?xml version="1.0" ?><!DOCTYPE svg  PUBLIC '-//W3C//DTD SVG 1.1//EN'  'http://www.w3.org/Graphics/SVG/1.1/DTD/svg11.dtd'><svg height="132px" style="enable-background:new 0 0 152 132;" version="1.1" viewBox="0 0 152 132" width="152px" xml:space="preserve" xmlns="http://www.w3.org/2000/svg" xmlns:xlink="http://www.w3.org/1999/xlink"><style type="text/css">
</style><defs/><path fill="#C62828" d="M74.7,30.7c-23.2,0-44.2,9.4-59.4,24.6L3.2,43.2c18.3-18.3,43.6-29.7,71.5-29.7s53.2,11.3,71.5,29.7l-12.1,12.1  C118.9,40.1,97.9,30.7,74.7,30.7L74.7,30.7z M83.3,112.1c0,4.7-3.8,8.6-8.6,8.6c-4.7,0-8.6-3.8-8.6-8.6c0-4.7,3.8-8.6,8.6-8.6  C79.5,103.5,83.3,107.4,83.3,112.1L83.3,112.1z M46.8,86.8c7.1-7.1,17-11.6,27.9-11.6c10.9,0,20.7,4.4,27.9,11.6L90.5,98.9  c-4-4-9.6-6.5-15.8-6.5S63,94.9,59,98.9L46.8,86.8L46.8,86.8z M25,65c12.7-12.7,30.3-20.6,49.7-20.6c19.4,0,37,7.9,49.7,20.6  l-12.1,12.1c-9.6-9.6-22.9-15.6-37.6-15.6c-14.7,0-27.9,6-37.6,15.6L25,65L25,65z"/><rect fill="none" height="132" id="_x3C_Slice_x3E__100_" width="152"/></svg>
