<?xml version="1.0" encoding="utf-8"?>
<!-- Generator: Adobe Illustrator 16.0.0, SVG Export Plug-In . SVG Version: 6.00 Build 0)  -->
<!DOCTYPE svg PUBLIC "-//W3C//DTD SVG 1.1//EN" "http://www.w3.org/Graphics/SVG/1.1/DTD/svg11.dtd">
<svg version="1.1" id="Layer_1" xmlns="http://www.w3.org/2000/svg" xmlns:xlink="http://www.w3.org/1999/xlink" x="0px" y="0px"
	 width="15.307px" height="14px" viewBox="0 0 15.307 14" enable-background="new 0 0 15.307 14" xml:space="preserve">
<g>
	<path fill="#757575" d="M9.747,12.544c-0.707,0.292-1.482,0.454-2.297,0.454C4.137,13,1.453,10.315,1.453,7.001
		c0-0.786,0.153-1.531,0.427-2.218l0.902,0.555c0.224,0.138,0.399,0.032,0.392-0.23L3.079,2.418C3.069,2.155,2.864,2.03,2.626,2.141
		L0.185,3.276C-0.052,3.388-0.062,3.591,0.161,3.73l0.854,0.522c-0.362,0.842-0.563,1.77-0.563,2.748C0.452,10.866,3.586,14,7.45,14
		c1.094,0,2.129-0.253,3.054-0.7c0,0,0.464-0.387,0.105-0.788C10.339,12.208,9.747,12.544,9.747,12.544z"/>
	<path fill="#757575" d="M15.112,9.7l-1.038-0.432c0.242-0.713,0.376-1.475,0.376-2.268c0-3.866-3.134-7.001-7-7.001
		C6.357,0,5.322,0.253,4.397,0.701c0,0-0.43,0.315-0.141,0.717c0.247,0.349,0.897,0.038,0.897,0.038
		C5.863,1.165,6.637,1.003,7.45,1.003c3.315,0,6,2.683,6,5.998c0,0.657-0.109,1.291-0.305,1.881L12.273,8.52
		c-0.242-0.104-0.399,0.026-0.35,0.285l0.51,2.645c0.049,0.259,0.27,0.349,0.488,0.202l2.235-1.5
		C15.374,10.006,15.355,9.803,15.112,9.7z"/>
</g>
</svg>
