<?xml version="1.0" encoding="utf-8"?>
<!-- Generator: Adobe Illustrator 16.0.0, SVG Export Plug-In . SVG Version: 6.00 Build 0)  -->
<!DOCTYPE svg PUBLIC "-//W3C//DTD SVG 1.1//EN" "http://www.w3.org/Graphics/SVG/1.1/DTD/svg11.dtd">
<svg version="1.1" id="Layer_1" xmlns="http://www.w3.org/2000/svg" xmlns:xlink="http://www.w3.org/1999/xlink" x="0px" y="0px"
	 width="18.469px" height="16.304px" viewBox="0 0 18.469 16.304" enable-background="new 0 0 18.469 16.304" xml:space="preserve">
<g>
	<g>
		<path fill="#C62828" d="M1.235,16.304c-1.1,0-1.55-0.779-1-1.732l8-13.857c0.55-0.953,1.45-0.953,2,0l8,13.857
			c0.55,0.953,0.1,1.732-1,1.732H1.235z"/>
	</g>
	<g>
		<g>
			<g>
				<path fill="#FFFFFF" d="M8.221,13.037c0-0.55,0.45-1,1-1h0.041c0.55,0,1,0.45,1,1v0.002c0,0.55-0.45,1-1,1H9.221
					c-0.55,0-1-0.45-1-1V13.037z M10.197,6.253c0,0.55-0.057,1.446-0.125,1.992l-0.256,2.02c-0.069,0.546-0.333,0.992-0.587,0.992
					c-0.254,0-0.517-0.447-0.584-0.993L8.396,8.246C8.328,7.7,8.273,6.803,8.273,6.253V5.757c0-0.55,0.433-1,0.962-1
					s0.962,0.45,0.962,1V6.253z"/>
			</g>
		</g>
	</g>
</g>
</svg>
